<?xml version="1.0"?>
<svg xmlns="http://www.w3.org/2000/svg" id="Layer_1" data-name="Layer 1" viewBox="0 0 128 128" width="512" height="512"><title>SMARTPHONE HOTSPOT</title><path d="M37.166,40.75a1.25,1.25,0,0,0,1.25-1.25v-.875a1.25,1.25,0,1,0-2.5,0V39.5A1.25,1.25,0,0,0,37.166,40.75Z"/><path d="M85.5,18.25h-43a6.591,6.591,0,0,0-6.584,6.584V33a1.25,1.25,0,1,0,2.5,0V29.271H85.833a1.25,1.25,0,0,0,0-2.5H38.416V24.834A4.088,4.088,0,0,1,42.5,20.75h43a4.088,4.088,0,0,1,4.083,4.084v73.9H42.166a1.25,1.25,0,0,0,0,2.5H89.583v1.938A4.088,4.088,0,0,1,85.5,107.25h-43a4.088,4.088,0,0,1-4.084-4.084V45.25a1.25,1.25,0,1,0-2.5,0v57.917A6.591,6.591,0,0,0,42.5,109.75h43a6.591,6.591,0,0,0,6.583-6.584V24.834A6.591,6.591,0,0,0,85.5,18.25Z"/><path d="M66.1,104.193a1.729,1.729,0,1,0-1.728,1.729A1.731,1.731,0,0,0,66.1,104.193Zm-2.5,0a.771.771,0,1,1,.771.77A.772.772,0,0,1,63.6,104.193Z"/><path d="M59.062,22.5a1.25,1.25,0,0,0,0,2.5h9.875a1.25,1.25,0,0,0,0-2.5Z"/><path d="M74.142,69.814a1.25,1.25,0,1,0,1.971-1.538,15.36,15.36,0,0,0-24.224,0,1.25,1.25,0,1,0,1.971,1.538,12.86,12.86,0,0,1,20.283,0Z"/><path d="M79.268,65.817a1.25,1.25,0,1,0,1.971-1.539,21.843,21.843,0,0,0-13.12-8.029,1.25,1.25,0,0,0-.469,2.456A19.343,19.343,0,0,1,79.268,65.817Z"/><path d="M46.762,64.279a1.25,1.25,0,1,0,1.971,1.538,19.279,19.279,0,0,1,14.951-7.453,1.25,1.25,0,1,0-.04-2.5A21.77,21.77,0,0,0,46.762,64.279Z"/><path d="M84.765,61.531a1.25,1.25,0,1,0,1.971-1.538,28.844,28.844,0,0,0-36.753-7.47A1.25,1.25,0,0,0,51.2,54.707a26.343,26.343,0,0,1,33.564,6.824Z"/><path d="M46.242,55.009a29,29,0,0,0-4.978,4.984,1.25,1.25,0,0,0,1.971,1.538,26.473,26.473,0,0,1,4.548-4.554,1.25,1.25,0,1,0-1.541-1.969Z"/><path d="M59.019,74.051a5.057,5.057,0,1,0,5.057-5.057A5.063,5.063,0,0,0,59.019,74.051Zm7.614,0a2.557,2.557,0,1,1-2.557-2.557A2.559,2.559,0,0,1,66.633,74.051Z"/></svg>
