<svg id="Capa_1" enable-background="new 0 0 497 497" height="512" viewBox="0 0 497 497" width="512" xmlns="http://www.w3.org/2000/svg"><g><g><path d="m422 91h-197c-2.76 0-5-2.24-5-5v-20c0-13.81-11.19-25-25-25h-170c-13.81 0-25 11.19-25 25v365c0 13.81 11.19 25 25 25l397-20c13.807 0 25-11.193 25-25v-295c0-13.81-11.19-25-25-25z" fill="#f3d332"/><path d="m447 157v254c0 13.81-11.19 25-25 25l-397 20c-12.1 0-22.18-8.59-24.5-20h14.5c1.81 0 2.99-.92 3.54-1.46.54-.55 1.46-1.73 1.46-3.54v-229c0-24.81 20.19-45 45-45z" fill="#dbb72b"/><path d="m497 212v219c0 13.81-11.19 25-25 25h-447c6.9 0 13.16-2.8 17.68-7.32s7.32-10.78 7.32-17.68v-219c0-13.81 11.19-25 25-25h397c13.81 0 25 11.19 25 25z" fill="#faf063"/></g><g fill="#b9a1d3"><path d="m220 353h-30v-34.5h30c2.761 0 5 2.239 5 5v24.5c0 2.761-2.239 5-5 5z"/><path d="m190 387.5h-30c-2.761 0-5-2.239-5-5v-24.5c0-2.761 2.239-5 5-5h30z"/><path d="m220 422h-30v-34.5h30c2.761 0 5 2.239 5 5v24.5c0 2.761-2.239 5-5 5z"/><path d="m190 456h-30c-2.761 0-5-2.239-5-5v-24c0-2.761 2.239-5 5-5h30z"/></g><path d="m173.5 353h16.5v34.5h-16.5z" fill="#9573bb"/><path d="m173.5 422h16.5v34h-16.5z" fill="#9573bb"/><path d="m190 318.5h16.5v34.5h-16.5z" fill="#9573bb"/><path d="m190 387.5h16.5v34.5h-16.5z" fill="#9573bb"/><path d="m182.5 264.074h15v191.926h-15z" fill="#b9a1d3"/><path d="m190.492 284.199c-17.98 0-31.715-16.083-28.936-33.883l6.938-44.452c1.695-10.86 11.029-18.864 21.998-18.864 10.968 0 20.303 8.004 21.998 18.863l6.938 44.452c2.778 17.801-10.956 33.884-28.936 33.884z" fill="#b9a1d3"/><path d="m213.73 272.71c-5.31 6.94-13.68 11.49-23.24 11.49-17.98 0-31.71-16.08-28.93-33.88l6.93-44.46c1.44-9.19 8.34-16.33 17.07-18.31-1.53 2.47-2.6 5.28-3.07 8.31l-6.93 44.46c-2.78 17.8 10.95 33.88 28.93 33.88 3.24 0 6.35-.52 9.24-1.49z" fill="#9573bb"/></g></svg>