<?xml version="1.0" encoding="iso-8859-1"?>
<!-- Generator: Adobe Illustrator 19.0.0, SVG Export Plug-In . SVG Version: 6.00 Build 0)  -->
<svg version="1.1" id="Capa_1" xmlns="http://www.w3.org/2000/svg" xmlns:xlink="http://www.w3.org/1999/xlink" x="0px" y="0px"
	 viewBox="0 0 512 512" style="enable-background:new 0 0 512 512;" xml:space="preserve">
<linearGradient id="SVGID_1_" gradientUnits="userSpaceOnUse" x1="66" y1="258" x2="446" y2="258" gradientTransform="matrix(1 0 0 -1 0 514)">
	<stop  offset="0" style="stop-color:#80D8FF"/>
	<stop  offset="1" style="stop-color:#EA80FC"/>
</linearGradient>
<path style="fill:url(#SVGID_1_);" d="M426,0H162c-5.304,0-10.392,2.107-14.142,5.857l-76,76C68.107,85.608,66,90.695,66,96v396
	c0,11.046,8.954,20,20,20h340c11.046,0,20-8.954,20-20V20C446,8.954,437.046,0,426,0z M406,472H106V104.284L170.284,40H406V472z
	 M356,376c0,11.046-8.954,20-20,20H176c-11.046,0-20-8.954-20-20s8.954-20,20-20h160C347.046,356,356,364.954,356,376z M176,256h160
	c11.046,0,20,8.954,20,20s-8.954,20-20,20H176c-11.046,0-20-8.954-20-20S164.954,256,176,256z M199.332,163.385
	c-7.811-7.811-7.811-20.475,0-28.285s20.474-7.811,28.284,0l12.616,12.616l44.153-44.153c7.811-7.809,20.474-7.809,28.284,0
	c7.811,7.811,7.811,20.475,0,28.285l-58.295,58.295c-3.905,3.904-9.023,5.857-14.142,5.857s-10.237-1.953-14.142-5.857
	L199.332,163.385z"/>
<g>
</g>
<g>
</g>
<g>
</g>
<g>
</g>
<g>
</g>
<g>
</g>
<g>
</g>
<g>
</g>
<g>
</g>
<g>
</g>
<g>
</g>
<g>
</g>
<g>
</g>
<g>
</g>
<g>
</g>
</svg>
