<?xml version="1.0" encoding="iso-8859-1"?>
<!-- Generator: Adobe Illustrator 19.0.0, SVG Export Plug-In . SVG Version: 6.00 Build 0)  -->
<svg version="1.1" id="Capa_1" xmlns="http://www.w3.org/2000/svg" xmlns:xlink="http://www.w3.org/1999/xlink" x="0px" y="0px"
	 viewBox="0 0 512 512" style="enable-background:new 0 0 512 512;" xml:space="preserve">
<g>
	<g>
		<path d="M256,339.01c-33.718,0-61.147,27.431-61.147,61.148c0,33.718,27.431,61.148,61.147,61.148
			c33.717,0,61.148-27.431,61.148-61.148C317.148,366.441,289.717,339.01,256,339.01z M256,431.148
			c-17.088,0-30.99-13.902-30.99-30.99s13.902-30.99,30.99-30.99c17.088,0,30.99,13.902,30.99,30.99S273.089,431.148,256,431.148z"
			/>
	</g>
</g>
<g>
	<g>
		<path d="M403.561,258.355c-81.365-81.366-213.758-81.366-295.123,0c-21.596,21.596-21.596,56.736,0,78.331
			c10.462,10.463,24.372,16.225,39.166,16.225c14.795,0,28.705-5.762,39.165-16.224c18.492-18.492,43.078-28.676,69.231-28.676
			s50.738,10.184,69.23,28.675c10.462,10.461,24.371,16.224,39.166,16.224c14.795,0,28.705-5.761,39.166-16.224
			C425.157,315.09,425.157,279.951,403.561,258.355z M382.238,315.362c-4.766,4.766-11.102,7.391-17.842,7.391
			c-6.74,0-13.075-2.625-17.842-7.391c-24.189-24.188-56.348-37.508-90.555-37.508s-66.366,13.32-90.555,37.509
			c-4.766,4.766-11.101,7.391-17.841,7.391c-6.739,0-13.076-2.625-17.842-7.391c-9.837-9.838-9.837-25.845,0-35.683
			C164.57,244.87,210.277,227.473,256,227.473c45.711,0,91.437,17.406,126.238,52.205
			C392.075,289.516,392.075,305.523,382.238,315.362z"/>
	</g>
</g>
<g>
	<g>
		<path d="M495.776,150.014C431.73,85.968,346.576,50.695,256,50.695S80.27,85.968,16.224,150.014C5.761,160.476,0,174.385,0,189.18
			c0,14.795,5.761,28.705,16.224,39.166c10.798,10.799,24.979,16.197,39.165,16.196c14.182-0.001,28.369-5.4,39.166-16.196
			c43.05-43.05,100.387-66.76,161.446-66.76s118.396,23.708,161.446,66.76c10.461,10.461,24.371,16.222,39.165,16.222
			c14.795,0,28.705-5.761,39.165-16.222C506.238,217.885,512,203.976,512,189.18C512,174.385,506.239,160.476,495.776,150.014z
			 M474.452,207.022c-4.766,4.765-11.102,7.389-17.842,7.389s-13.076-2.625-17.842-7.389
			c-48.746-48.747-113.655-75.593-182.77-75.593s-134.024,26.846-182.769,75.592c-9.839,9.837-25.846,9.837-35.684,0
			c-4.764-4.765-7.388-11.102-7.388-17.841c0-6.739,2.625-13.076,7.391-17.842C95.899,112.988,173.48,80.852,256,80.852
			s160.102,32.135,218.453,90.487c4.766,4.765,7.391,11.101,7.391,17.841S479.218,202.257,474.452,207.022z"/>
	</g>
</g>
<g>
</g>
<g>
</g>
<g>
</g>
<g>
</g>
<g>
</g>
<g>
</g>
<g>
</g>
<g>
</g>
<g>
</g>
<g>
</g>
<g>
</g>
<g>
</g>
<g>
</g>
<g>
</g>
<g>
</g>
</svg>
