<svg id="Capa_1" enable-background="new 0 0 512 512" height="512" viewBox="0 0 512 512" width="512" xmlns="http://www.w3.org/2000/svg"><g><g><path d="m270.224 402.254h-44.224-44.224l-30 90h74.224 74.224z" fill="#cce6ff"/><path d="m270.224 402.254h-44.224v90h74.224z" fill="#b3ccff"/><path d="m226 121h-226v301h226 226v-301z" fill="#333e73"/><path d="m226 121h226v301h-226z" fill="#1f2859"/><path d="m226 151h-196v241h196 196v-241z" fill="#6cf"/><path d="m226 151h196v241h-196z" fill="#4da6ff"/><path d="m226 482h-105v30h105 105v-30z" fill="#e6f7ff"/><path d="m226 482h105v30h-105z" fill="#cce6ff"/></g><path d="m302 0v331h210v-331z" fill="#333e73"/><path d="m407 0h105v331h-105z" fill="#1f2859"/><path d="m332 30h150v271h-150z" fill="#6cf"/><path d="m407 30h75v271h-75z" fill="#4da6ff"/><path d="m377 241h60v30h-60z" fill="#333e73"/><path d="m392 60h30v30h-30z" fill="#b3f2ff"/><path d="m407 60h15v30h-15z" fill="#80eaff"/><path d="m407 241h30v30h-30z" fill="#1f2859"/></g></svg>