<svg id="Capa_1" enable-background="new 0 0 512 512" height="512" viewBox="0 0 512 512" width="512" xmlns="http://www.w3.org/2000/svg"><g><g clip-rule="evenodd" fill-rule="evenodd"><path d="m95.727 11.325h246.333c5.301 0 7.767 2.523 7.767 7.767v473.817c0 4.28-3.515 7.767-7.767 7.767h-326.781c-4.28 0-7.767-3.486-7.767-7.767v-393.369z" fill="#f9f7f8"/><path d="m317.796 11.325h24.265c5.301 0 7.767 2.523 7.767 7.767v473.817c0 4.28-3.515 7.767-7.767 7.767h-24.265c4.252 0 7.767-3.486 7.767-7.767v-473.817c0-5.244-2.494-7.767-7.767-7.767z" fill="#ebe8fa"/><path d="m95.727 11.325v80.448c0 5.103-2.098 7.767-7.767 7.767h-80.448z" fill="#dddaec"/><path d="m408.647 101.297 28.715-5.584 30.105 5.584v305.267l-28.631 5.584-30.189-5.584z" fill="#61a2f9"/><path d="m443.174 101.297h24.293v305.266h-24.293z" fill="#5490f9"/><path d="m408.647 406.564h58.819v36.936c0 5.698-2.098 9.752-5.669 13.097l-18.086 17.008c-3.628 3.827-7.313 3.77-11.31 0l-18.113-17.008c-3.883-3.685-5.641-8.221-5.641-13.097z" fill="#365e7d"/><path d="m443.174 406.564h24.293v36.936c0 5.698-2.098 9.752-5.669 13.097l-18.086 17.008c-3.628 3.827-7.313 3.77-11.31 0l-6.491-6.094 11.622-10.914c3.572-3.345 5.641-7.399 5.641-13.097z" fill="#2b4d66"/><path d="m467.467 101.297v-51.761c0-16.157-13.238-29.396-29.424-29.396-16.158 0-29.396 13.238-29.396 29.396v51.761z" fill="#365e7d"/><path d="m467.467 101.297v-51.761c0-16.157-13.238-29.396-29.424-29.396-4.309 0-8.419.935-12.132 2.637 10.176 4.648 17.263 14.91 17.263 26.759v51.761z" fill="#2b4d66"/><g fill="#b3e59f"><path d="m68.203 155.128h49.749c4.28 0 7.767 3.486 7.767 7.767v49.749c0 4.28-3.487 7.767-7.767 7.767h-49.749c-4.281 0-7.767-3.487-7.767-7.767v-49.749c0-4.28 3.486-7.767 7.767-7.767z"/><path d="m68.203 379.805h49.749c4.28 0 7.767 3.486 7.767 7.767v49.749c0 4.28-3.487 7.767-7.767 7.767h-49.749c-4.281 0-7.767-3.486-7.767-7.767v-49.749c0-4.281 3.486-7.767 7.767-7.767z"/></g></g><path d="m342.316 79.272c0-4.139 3.373-7.512 7.512-7.512s7.483 3.373 7.483 7.512v421.403c0 4.139-3.345 7.512-7.483 7.512h-342.316c-4.139 0-7.512-3.373-7.512-7.512v-33.988c0-4.139 3.374-7.483 7.512-7.483s7.483 3.345 7.483 7.483v26.476h327.32v-413.891zm-160.131 98.335c-4.139 0-7.484-3.345-7.484-7.483 0-4.139 3.345-7.512 7.484-7.512h77.585c4.139 0 7.512 3.373 7.512 7.512s-3.373 7.483-7.512 7.483zm0 35.292c-4.139 0-7.484-3.345-7.484-7.484 0-4.138 3.345-7.512 7.484-7.512h114.691c4.139 0 7.512 3.374 7.512 7.512 0 4.139-3.373 7.484-7.512 7.484zm0 77.075c-4.139 0-7.484-3.373-7.484-7.512s3.345-7.512 7.484-7.512h77.585c4.139 0 7.512 3.374 7.512 7.512s-3.373 7.512-7.512 7.512zm0 35.292c-4.139 0-7.484-3.374-7.484-7.512 0-4.139 3.345-7.512 7.484-7.512h114.691c4.139 0 7.512 3.374 7.512 7.512 0 4.139-3.373 7.512-7.512 7.512zm0 77.045c-4.139 0-7.484-3.373-7.484-7.512s3.345-7.483 7.484-7.483h77.585c4.139 0 7.512 3.345 7.512 7.483s-3.373 7.512-7.512 7.512zm0 35.293c-4.139 0-7.484-3.373-7.484-7.512s3.345-7.483 7.484-7.483h114.691c4.139 0 7.512 3.345 7.512 7.483s-3.373 7.512-7.512 7.512zm-122.061-159.848c-2.919-2.919-2.919-7.653 0-10.602 2.948-2.919 7.683-2.919 10.63 0l22.337 22.337 22.337-22.337c2.92-2.919 7.682-2.919 10.602 0 2.92 2.948 2.92 7.682 0 10.602l-22.337 22.366 22.337 22.338c2.92 2.919 2.92 7.653 0 10.602-2.919 2.919-7.682 2.919-10.602 0l-22.337-22.338-22.337 22.338c-2.948 2.919-7.682 2.919-10.63 0-2.919-2.948-2.919-7.682 0-10.602l22.366-22.338zm.312 94.565h65.283c4.139 0 7.512 3.345 7.512 7.483v65.282c0 4.139-3.373 7.512-7.512 7.512h-65.283c-4.139 0-7.484-3.373-7.484-7.512v-65.282c0-4.138 3.345-7.483 7.484-7.483zm57.799 14.995h-50.287v50.287h50.287zm-57.799-239.7h65.283c4.139 0 7.512 3.374 7.512 7.513v65.282c0 4.139-3.373 7.512-7.512 7.512h-65.283c-4.139 0-7.484-3.373-7.484-7.512v-65.282c0-4.139 3.345-7.513 7.484-7.513zm57.799 14.996h-50.287v50.287h50.287zm356.716-68.798h29.565c4.139 0 7.484 3.345 7.484 7.483v109.418c0 4.139-3.345 7.484-7.484 7.484-4.138 0-7.512-3.345-7.512-7.484v-101.905h-22.054v128.127c0 4.167-3.345 7.512-7.484 7.512-4.167 0-7.512-3.345-7.512-7.512v-128.127h-43.824v290.27h43.824v-128.156c0-4.139 3.345-7.512 7.512-7.512 4.139 0 7.484 3.373 7.484 7.512v180.343c0 2.353-1.077 4.422-2.75 5.811l-29.027 27.297c-2.892 2.722-7.398 2.693-10.262 0l-29.395-27.666c-1.502-1.418-2.381-3.373-2.381-5.442v-401.731c0-10.148 4.139-19.389 10.829-26.05 6.689-6.69 15.931-10.857 26.079-10.857s19.389 4.167 26.079 10.857c6.69 6.661 10.829 15.902 10.829 26.05zm-14.996 0v-44.278c0-6.009-2.466-11.48-6.435-15.449-3.968-3.969-9.468-6.435-15.477-6.435-6.01 0-11.48 2.466-15.477 6.435-3.969 3.968-6.435 9.439-6.435 15.449v44.278zm-43.824 320.262v33.987l21.912 20.58 21.912-20.58v-33.987zm-312.892-395.268v80.732c0 4.139-3.373 7.513-7.512 7.513h-80.731v325.676c0 4.139-3.345 7.512-7.483 7.512-4.139 0-7.512-3.373-7.512-7.512v-333.189c0-2.097.851-3.968 2.24-5.329l88.185-88.187c1.474-1.474 3.374-2.211 5.301-2.211h254.101c4.139 0 7.483 3.373 7.483 7.512v33.96c0 4.139-3.345 7.512-7.483 7.512-4.139 0-7.512-3.373-7.512-7.512v-26.477zm-77.641 73.22h62.618v-62.618z"/></g></svg>