<svg height="512pt" viewBox="0 0 512 512" width="512pt" xmlns="http://www.w3.org/2000/svg"><path d="m395.777344 70.457031h-279.554688c-25.234375 0-45.765625 20.53125-45.765625 45.765625v279.554688c0 25.234375 20.53125 45.765625 45.765625 45.765625h279.554688c25.234375 0 45.765625-20.53125 45.765625-45.765625v-279.554688c0-25.234375-20.53125-45.765625-45.765625-45.765625zm-279.554688 15h279.554688c16.964844 0 30.765625 13.800781 30.765625 30.765625v248.179688l-91.664063-88.980469c-13.523437-13.125-34.722656-13.144531-48.269531-.046875l-44.046875 42.597656-39.804688-59.84375c-8.152343-12.253906-21.214843-20.246094-35.839843-21.917968-14.628907-1.675782-29.15625 3.152343-39.867188 13.25l-41.59375 39.199218v-172.4375c0-16.964844 13.800781-30.765625 30.765625-30.765625zm279.554688 341.085938h-279.554688c-16.964844 0-30.765625-13.804688-30.765625-30.769531v-86.5l51.882813-48.898438c7.488281-7.058594 17.640625-10.433594 27.871094-9.265625 10.226562 1.171875 19.359374 6.757813 25.058593 15.328125l94.238281 141.6875c3.605469 5.277344 9.125 2.9375 10.398438 2.089844 3.449219-2.292969 4.386719-6.949219 2.09375-10.398438l-45.992188-69.144531 46.027344-44.511719c7.6875-7.4375 19.71875-7.421875 27.394532.023438l102.113281 99.125v10.46875c0 16.960937-13.800781 30.765625-30.765625 30.765625zm0 0"/><path d="m441.933594 0h-125.691406c-13.429688 0-24.355469 10.925781-24.355469 24.355469 0 13.429687 10.925781 24.359375 24.355469 24.359375h35.757812c4.144531 0 7.5-3.359375 7.5-7.5 0-4.144532-3.355469-7.5-7.5-7.5h-35.757812c-5.15625 0-9.355469-4.199219-9.355469-9.359375 0-5.15625 4.199219-9.355469 9.355469-9.355469h125.691406c30.363281 0 55.066406 24.703125 55.066406 55.066406v125.6875c0 5.160156-4.195312 9.359375-9.355469 9.359375-5.160156 0-9.359375-4.199219-9.359375-9.359375v-125.6875c0-20.046875-16.308594-36.351562-36.351562-36.351562h-57.765625c-4.144531 0-7.5 3.355468-7.5 7.5 0 4.140625 3.355469 7.5 7.5 7.5h57.765625c11.773437 0 21.351562 9.578125 21.351562 21.351562v125.6875c0 13.433594 10.929688 24.359375 24.359375 24.359375 13.429688 0 24.355469-10.929687 24.355469-24.359375v-125.6875c0-38.636718-31.433594-70.066406-70.066406-70.066406zm0 0"/><path d="m195.757812 463.285156h-125.691406c-11.773437 0-21.351562-9.578125-21.351562-21.351562v-125.691406c0-13.429688-10.929688-24.355469-24.359375-24.355469-13.429688 0-24.355469 10.925781-24.355469 24.355469v125.691406c0 38.632812 31.433594 70.066406 70.066406 70.066406h125.6875c13.433594 0 24.359375-10.929688 24.359375-24.359375s-10.925781-24.355469-24.355469-24.355469zm0 33.714844h-125.691406c-30.363281 0-55.066406-24.703125-55.066406-55.066406v-125.691406c0-5.160157 4.199219-9.355469 9.355469-9.355469 5.160156 0 9.359375 4.199219 9.359375 9.355469v125.691406c0 20.042968 16.304687 36.347656 36.351562 36.347656h125.6875c5.160156 0 9.359375 4.199219 9.359375 9.359375s-4.199219 9.359375-9.355469 9.359375zm0 0"/><path d="m330.417969 225.71875c25.136719 0 45.582031-20.449219 45.582031-45.582031 0-25.132813-20.445312-45.578125-45.582031-45.578125-25.132813 0-45.578125 20.445312-45.578125 45.578125 0 25.136719 20.445312 45.582031 45.578125 45.582031zm0-76.160156c16.863281 0 30.582031 13.71875 30.582031 30.578125 0 16.863281-13.71875 30.582031-30.582031 30.582031-16.859375 0-30.578125-13.71875-30.578125-30.582031s13.71875-30.578125 30.578125-30.578125zm0 0"/></svg>